<?xml version="1.0" standalone="no"?> <!DOCTYPE svg PUBLIC "-//W3C//DTD SVG 20010904//EN" "http://www.w3.org/TR/2001/REC-SVG-20010904/DTD/svg10.dtd"> <svg version="1.0" xmlns="http://www.w3.org/2000/svg" width="600.000000pt" height="600.000000pt" viewBox="0 0 600.000000 600.000000" preserveAspectRatio="xMidYMid meet"> <g transform="translate(0.000000,600.000000) scale(0.040000,-0.040000)" fill="#5123ff" stroke="none"> <path d="M1075 14966 c0 -35 -103 -66 -218 -66 -61 0 -174 -42 -319 -119 -96 -51 -305 -249 -350 -331 -94 -171 -123 -251 -146 -400 -32 -216 -33 -12924 -1 -13150 63 -429 408 -779 847 -857 227 -40 12719 -57 13037 -17 434 54 740 256 901 593 48 102 74 195 74 270 0 123 38 221 76 198 15 -10 24 2351 24 6387 0 5455 -5 6401 -35 6401 -46 0 -65 55 -65 190 0 249 -282 634 -550 749 -21 9 -73 32 -116 51 -44 19 -105 35 -138 35 -127 1 -246 33 -246 66 0 29 -998 34 -6387 34 -5404 0 -6388 -5 -6388 -34z m8371 -2736 c78 -50 180 -112 227 -138 46 -25 131 -76 187 -112 114 -72 298 -174 459 -254 58 -29 106 -68 106 -87 0 -18 -115 -92 -256 -163 -141 -72 -324 -168 -406 -214 -83 -47 -173 -97 -200 -111 -28 -15 -95 -53 -150 -84 -55 -32 -168 -95 -250 -140 -83 -46 -168 -99 -190 -118 -22 -19 -52 -34 -67 -34 -15 0 -43 -15 -62 -34 -61 -62 -133 -69 -196 -21 -33 26 -77 54 -98 64 -43 20 -96 52 -238 144 -122 80 -412 240 -656 364 -99 50 -181 105 -181 121 0 15 82 70 181 120 100 51 249 131 332 178 82 47 200 112 262 144 62 31 118 65 126 75 7 9 40 29 75 44 34 15 95 49 137 75 41 27 108 66 150 88 41 22 153 88 250 147 198 122 183 124 458 -54z m-3535 -1027 c7 -12 134 -94 282 -181 362 -215 335 -201 638 -351 180 -90 266 -146 262 -171 -6 -37 -400 -250 -463 -250 -17 0 -38 -17 -46 -37 -8 -21 -30 -38 -49 -38 -29 0 -136 -56 -335 -176 -21 -13 -130 -68 -244 -123 l-207 -100 7 -693 7 -694 87 -24 c48 -13 93 -32 100 -40 7 -9 29 -24 50 -33 21 -10 71 -40 113 -67 41 -27 97 -60 125 -74 27 -14 111 -64 187 -112 76 -48 171 -104 213 -124 41 -21 131 -72 200 -114 121 -73 166 -96 231 -115 21 -7 31 -69 30 -204 -3 -307 -22 -374 -124 -429 -58 -31 -87 -64 -87 -100 0 -76 48 -67 58 11 7 63 13 65 116 50 99 -15 123 -6 283 97 97 63 202 125 234 139 32 14 92 47 134 73 41 26 136 80 212 120 310 164 493 267 595 335 123 82 243 147 273 147 26 0 17 -1451 -10 -1475 -11 -11 -94 -58 -183 -106 -89 -48 -213 -115 -275 -150 -62 -34 -180 -99 -262 -144 -83 -45 -167 -95 -188 -112 -21 -17 -88 -55 -150 -86 -62 -30 -146 -77 -187 -103 -42 -27 -92 -56 -113 -66 -21 -10 -89 -55 -153 -100 -123 -88 -170 -102 -175 -52 -2 17 0 225 3 463 5 400 2 432 -41 445 -26 8 -75 31 -109 52 -34 20 -98 53 -142 72 -44 20 -87 48 -95 62 -9 14 -33 25 -55 25 -21 0 -81 34 -133 75 -52 41 -106 75 -119 75 -14 0 -39 17 -56 38 -17 20 -46 37 -64 37 -35 0 -211 111 -365 230 -50 38 -108 70 -129 70 -39 0 -82 -130 -57 -171 8 -13 15 -463 16 -1002 1 -938 3 -981 50 -1028 27 -27 64 -49 83 -49 50 0 84 -50 103 -152 41 -220 -281 -323 -395 -128 -36 62 -41 91 -20 112 63 63 33 96 -234 260 -28 17 -73 43 -100 57 -28 15 -84 49 -125 76 -42 27 -98 61 -125 75 -28 14 -84 48 -125 75 -42 27 -100 60 -129 73 -30 13 -62 36 -71 50 -9 15 -37 27 -64 27 -26 0 -56 20 -67 44 -11 24 -14 724 -7 1556 15 1847 20 1741 -83 1784 -122 51 -149 98 -129 218 15 92 29 109 118 144 l101 39 -13 619 c-14 693 -26 640 176 750 59 32 127 70 150 84 24 13 121 69 218 124 96 55 197 114 225 130 27 17 72 43 100 57 27 15 83 49 125 76 41 27 99 60 128 73 30 13 62 36 71 50 19 33 179 36 199 5z m3578 -1068 c137 -90 271 -175 299 -187 27 -13 71 -37 97 -54 337 -222 325 -218 466 -138 l99 57 94 -54 c150 -86 147 -284 -6 -348 -48 -20 -95 -56 -106 -80 -11 -24 -14 -1133 -7 -2464 l13 -2421 100 -68 c207 -141 130 -378 -124 -378 -104 0 -146 50 -163 195 -15 126 -78 184 -388 354 -83 45 -167 96 -188 113 -21 17 -92 57 -158 90 -223 112 -254 130 -295 165 -37 31 -39 225 -29 2140 6 1187 1 2346 -13 2656 -24 533 -20 585 46 587 8 0 126 -74 263 -165z m-739 -1371 c0 -512 6 -494 -180 -588 -59 -30 -141 -76 -182 -102 -42 -27 -92 -56 -113 -66 -21 -9 -103 -67 -183 -127 -80 -61 -152 -104 -161 -95 -9 8 -16 231 -17 494 -2 488 8 545 97 545 18 0 47 17 64 38 17 20 49 38 72 39 22 1 142 73 266 160 123 87 250 160 281 161 l56 2 0 -461z m-525 -3364 c0 -14 -27 -25 -61 -25 -34 0 -68 11 -76 25 -10 15 16 25 61 25 42 0 76 -11 76 -25z"/> <path d="M9005 11695 c-16 -16 -30 -43 -30 -58 0 -71 -266 -256 -308 -214 -34 34 -142 36 -142 2 0 -14 27 -25 61 -25 76 0 103 -40 62 -90 -44 -53 6 -96 88 -75 39 10 64 33 64 61 0 24 34 70 76 100 87 65 150 49 86 -22 -70 -77 -30 -109 46 -38 48 44 65 79 55 112 -10 31 0 57 25 71 22 12 44 63 48 114 8 81 2 92 -46 92 -30 0 -69 -13 -85 -30z"/> <path d="M8731 11669 c-53 -25 -83 -144 -35 -144 30 0 129 111 129 145 0 36 -19 36 -94 -1z"/> <path d="M5750 10587 c-19 -22 -52 -32 -79 -23 -29 9 -52 0 -61 -25 -9 -21 -42 -39 -74 -39 -33 0 -71 -22 -85 -49 -23 -42 -37 -45 -102 -22 -95 33 -116 15 -78 -68 36 -78 15 -126 -35 -84 -45 37 -114 11 -96 -36 7 -20 1 -43 -13 -52 -15 -10 -27 -5 -27 10 0 14 -22 26 -50 26 -57 0 -68 -63 -14 -83 45 -18 37 -347 -12 -450 -27 -56 -27 -81 -4 -119 41 -65 38 -123 -7 -123 -51 0 -79 -65 -100 -235 -9 -81 -30 -175 -46 -209 -22 -50 -20 -67 11 -90 27 -20 45 -93 58 -238 10 -115 30 -236 45 -269 20 -44 18 -85 -7 -161 -24 -73 -26 -114 -7 -144 17 -27 20 -143 9 -328 -9 -157 -9 -333 0 -392 9 -64 5 -118 -11 -134 -18 -18 -17 -41 4 -75 17 -26 25 -63 18 -80 -35 -96 -66 -939 -36 -958 13 -8 24 -75 24 -149 0 -166 95 -273 176 -199 29 26 50 30 60 13 32 -51 89 -28 89 36 0 34 -11 62 -25 62 -14 0 -25 18 -25 41 0 32 16 37 76 25 l77 -15 -17 118 c-10 65 -33 128 -53 139 -41 24 -21 237 33 340 45 87 43 122 -10 118 -35 -3 -43 17 -43 109 0 97 6 111 47 104 61 -10 89 36 90 148 0 109 16 129 77 91 62 -39 91 -3 50 63 -28 45 -27 57 8 82 22 17 40 47 40 67 0 45 78 120 125 120 18 0 53 17 76 38 49 45 115 26 151 -43 21 -38 34 -42 62 -19 40 34 207 -30 244 -93 12 -20 40 -29 65 -21 25 8 59 -3 76 -24 46 -55 76 -23 75 82 -1 71 -18 107 -75 154 -41 34 -74 76 -74 94 0 82 -141 22 -154 -66 -18 -126 -69 -85 -59 48 7 93 0 131 -25 141 -19 8 -42 35 -50 61 -9 27 -28 48 -42 48 -15 0 -75 39 -134 88 -59 48 -131 87 -161 87 -42 0 -50 11 -37 50 22 71 -75 200 -152 200 -75 0 -137 109 -118 209 12 63 8 70 -37 55 -65 -20 -93 20 -43 61 23 20 29 42 15 60 -31 39 -50 289 -23 306 27 17 -2 359 -34 401 -15 18 -13 35 4 46 15 9 25 41 21 71 -4 29 4 70 17 91 13 21 24 83 24 138 0 85 9 101 58 108 76 10 120 104 83 174 -16 29 -28 57 -28 63 0 19 157 75 213 78 32 1 52 22 57 58 5 31 18 56 30 56 43 0 225 203 225 251 0 38 -17 49 -76 49 -44 0 -82 16 -90 38 -18 47 -45 47 -84 -1z m187 -2802 c58 -89 32 -102 -47 -23 -74 74 -79 88 -30 88 19 0 53 -29 77 -65z"/> <path d="M6572 7366 c-35 -78 -2 -133 66 -107 29 11 36 32 23 72 -28 95 -57 106 -89 35z"/> <path d="M8175 7261 c-34 -18 -107 -75 -162 -125 -55 -51 -131 -103 -169 -117 -53 -18 -69 -40 -69 -92 0 -96 -28 -114 -78 -49 -40 54 -44 55 -106 14 -66 -43 -134 -142 -98 -142 81 -2 87 -49 15 -121 -86 -86 -107 -308 -33 -354 62 -38 300 36 300 94 0 17 21 31 47 31 26 0 53 22 60 50 16 61 179 73 201 14 9 -21 34 -30 65 -22 71 19 65 49 -12 69 -86 21 -79 130 8 121 31 -4 56 4 56 17 0 13 24 46 52 73 42 39 52 74 46 170 -10 197 -1 243 65 313 34 37 62 74 62 81 0 27 -189 8 -250 -25z"/> <path d="M6739 7211 c-38 -20 -85 -36 -103 -36 -57 0 -65 -46 -12 -74 70 -38 165 -8 197 63 35 76 6 93 -82 47z"/> <path d="M7017 6890 c-8 -20 -5 -68 5 -107 l19 -70 31 56 c22 41 22 70 3 106 -32 59 -40 62 -58 15z"/> <path d="M9842 9478 c-88 -19 -192 -199 -189 -328 1 -34 -6 -176 -15 -314 -14 -212 -10 -257 23 -285 47 -38 50 -80 9 -121 -53 -53 -89 -415 -44 -443 17 -11 18 -27 2 -46 -45 -54 -91 -1333 -49 -1383 15 -19 18 -64 6 -113 -28 -120 -13 -649 20 -688 20 -25 19 -50 -6 -97 -27 -50 -28 -73 -4 -111 16 -27 30 -82 30 -124 0 -56 29 -106 108 -187 l109 -112 66 70 c80 83 82 94 17 111 -71 19 -62 77 24 164 73 72 74 76 35 153 -35 71 -35 83 -1 121 36 40 21 259 -20 300 -6 7 7 44 30 82 36 62 37 79 7 135 -26 49 -27 71 -4 94 40 40 36 107 -9 145 -33 27 -34 36 -3 71 41 46 40 264 0 304 -32 32 -16 394 21 468 22 43 21 70 -5 118 -25 47 -26 70 -4 96 18 22 28 120 25 259 -2 124 1 235 8 248 7 12 15 213 17 446 3 232 16 436 30 452 13 17 26 115 28 220 5 285 -47 344 -262 295z"/> </g> </svg>